<?xml version="1.0" standalone="no"?>
<!DOCTYPE svg PUBLIC "-//W3C//DTD SVG 20010904//EN"
 "http://www.w3.org/TR/2001/REC-SVG-20010904/DTD/svg10.dtd">
<svg version="1.0" xmlns="http://www.w3.org/2000/svg"
 width="260.000000pt" height="260.000000pt" viewBox="0 0 260.000000 260.000000"
 preserveAspectRatio="xMidYMid meet">
<metadata>
Created by potrace 1.14, written by Peter Selinger 2001-2017
</metadata>
<g transform="translate(0.000000,260.000000) scale(0.100000,-0.100000)"
fill="#000000" stroke="none">
<path d="M0 1300 l0 -1300 1300 0 1300 0 0 1300 0 1300 -150 0 c-149 0 -150 0
-138 -21 11 -17 10 -23 -7 -37 -11 -9 -29 -39 -39 -65 -20 -52 -68 -107 -117
-132 -29 -15 -31 -15 -49 7 l-19 23 44 23 c42 21 95 82 95 109 0 10 -22 13
-80 13 -79 0 -80 0 -80 25 0 25 0 25 94 25 71 0 97 4 106 15 11 13 -68 15
-704 15 -706 0 -717 0 -706 -19 7 -14 7 -22 -1 -27 -13 -8 -41 24 -33 37 3 5
-180 9 -405 9 l-411 0 0 -1300z m816 1243 c-3 -3 -1 -14 4 -24 9 -15 2 -20
-45 -38 -31 -12 -65 -21 -75 -21 -16 0 -20 -7 -20 -36 l0 -36 75 4 c71 3 75 2
75 -18 0 -28 -17 -34 -99 -34 -96 0 -99 4 -103 133 l-3 107 28 0 c25 0 27 -3
27 -40 l0 -40 48 18 c34 13 47 23 47 37 0 11 4 23 10 27 10 7 41 -30 31 -39z
m746 20 c3 -24 8 -28 33 -28 25 0 30 4 30 25 0 20 5 25 25 25 20 0 26 -6 28
-27 3 -22 9 -28 28 -28 36 0 33 -38 -3 -42 -24 -3 -29 -8 -34 -43 -7 -55 -22
-78 -63 -100 -35 -19 -36 -19 -50 0 -14 18 -14 21 0 30 53 33 64 47 64 81 0
33 -2 35 -27 32 -24 -2 -29 -8 -31 -36 -3 -28 -7 -33 -25 -30 -17 2 -23 11
-25 36 -3 26 -7 32 -28 32 -17 0 -24 5 -24 20 0 15 7 20 25 20 21 0 25 5 25
30 0 25 4 30 24 30 19 0 25 -6 28 -27z m853 -55 c-7 -78 -28 -150 -49 -167
-10 -8 -17 -6 -30 8 -16 18 -16 21 3 60 15 28 21 59 21 106 l0 65 31 0 30 0
-6 -72z m85 -20 c1 -99 4 -101 47 -32 10 18 12 18 28 2 17 -16 17 -18 -1 -49
-35 -60 -105 -92 -126 -58 -7 10 -8 54 -3 122 7 104 8 107 31 107 24 0 24 -2
24 -92z m-2244 67 c17 -43 -48 -154 -113 -195 -44 -28 -48 -29 -65 -13 -26 23
-23 30 21 53 38 19 81 66 94 103 6 15 -2 17 -78 17 -84 0 -85 0 -85 25 l0 25
110 0 c88 0 112 -3 116 -15z m864 -100 l0 -115 -25 0 c-14 0 -25 5 -25 10 0 6
-35 10 -86 10 -83 0 -85 1 -82 23 3 20 9 22 86 25 l82 3 0 54 0 55 -80 0 c-79
0 -80 0 -80 25 l0 25 105 0 105 0 0 -115z m146 90 c30 -23 32 -28 21 -45 -16
-26 -25 -25 -66 10 -29 25 -32 32 -21 45 17 21 28 19 66 -10z m580 0 c30 -23
32 -28 21 -45 -16 -26 -25 -25 -66 10 -29 25 -32 32 -21 45 17 21 28 19 66
-10z m-1310 -30 c7 -17 -22 -68 -48 -84 -15 -9 -23 -9 -34 0 -11 9 -14 7 -14
-16 0 -17 -11 -37 -31 -56 -37 -34 -50 -36 -67 -9 -11 18 -9 21 12 30 29 11
46 38 46 74 0 21 5 26 24 26 13 0 26 -5 28 -11 2 -7 9 -5 17 5 12 14 7 16 -58
16 -67 0 -71 1 -71 23 0 21 2 22 96 19 69 -3 97 -7 100 -17z m880 -43 c-24
-47 -95 -101 -154 -118 -29 -9 -55 -14 -57 -12 -2 1 -6 15 -10 31 -6 24 -5 27
19 27 51 0 114 39 148 91 31 49 32 49 51 31 18 -18 18 -21 3 -50z m580 0 c-24
-47 -95 -101 -154 -118 -29 -9 -55 -14 -57 -12 -2 1 -6 15 -10 31 -6 24 -5 27
19 27 51 0 114 39 148 91 31 49 32 49 51 31 18 -18 18 -21 3 -50z m-1146
-1111 c7 -14 7 -22 -1 -27 -13 -8 -41 24 -33 37 9 15 23 10 34 -10z m1464 -4
c9 -15 7 -22 -9 -35 -11 -9 -29 -39 -39 -65 -20 -52 -68 -107 -117 -132 -29
-15 -31 -15 -49 7 l-19 23 44 23 c42 21 95 82 95 109 0 10 -22 13 -80 13 -79
0 -80 0 -80 25 0 25 0 25 94 25 72 0 96 4 106 15 16 20 39 16 54 -8z m-1498
-34 c-3 -3 -1 -14 4 -24 9 -15 2 -20 -45 -38 -31 -12 -65 -21 -75 -21 -16 0
-20 -7 -20 -36 l0 -36 75 4 c71 3 75 2 75 -18 0 -28 -17 -34 -99 -34 -96 0
-99 4 -103 133 l-3 107 28 0 c25 0 27 -3 27 -40 l0 -40 48 18 c34 13 47 23 47
37 0 11 4 23 10 27 10 7 41 -30 31 -39z m746 20 c3 -24 8 -28 33 -28 25 0 30
4 30 25 0 20 5 25 25 25 20 0 26 -6 28 -27 3 -22 9 -28 28 -28 36 0 33 -38 -3
-42 -24 -3 -29 -8 -34 -43 -7 -55 -22 -78 -63 -100 -35 -19 -36 -19 -50 0 -14
18 -14 21 0 30 53 33 64 47 64 81 0 33 -2 35 -27 32 -24 -2 -29 -8 -31 -36 -3
-28 -7 -33 -25 -30 -17 2 -23 11 -25 36 -3 26 -7 32 -28 32 -17 0 -24 5 -24
20 0 15 7 20 25 20 21 0 25 5 25 30 0 25 4 30 24 30 19 0 25 -6 28 -27z m853
-55 c-7 -78 -28 -150 -49 -167 -10 -8 -17 -6 -30 8 -16 18 -16 21 3 60 15 28
21 59 21 106 l0 65 31 0 30 0 -6 -72z m85 -20 c1 -99 4 -101 47 -32 10 18 12
18 28 2 17 -16 17 -18 -1 -49 -35 -60 -105 -92 -126 -58 -7 10 -8 54 -3 122 7
104 8 107 31 107 24 0 24 -2 24 -92z m-2244 67 c17 -43 -48 -154 -113 -195
-44 -28 -48 -29 -65 -13 -26 23 -23 30 21 53 38 19 81 66 94 103 6 15 -2 17
-78 17 -84 0 -85 0 -85 25 l0 25 110 0 c88 0 112 -3 116 -15z m864 -100 l0
-115 -25 0 c-14 0 -25 5 -25 10 0 6 -35 10 -86 10 -83 0 -85 1 -82 23 3 20 9
22 86 25 l82 3 0 54 0 55 -80 0 c-79 0 -80 0 -80 25 l0 25 105 0 105 0 0 -115z
m146 90 c30 -23 32 -28 21 -45 -16 -26 -25 -25 -66 10 -29 25 -32 32 -21 45
17 21 28 19 66 -10z m580 0 c30 -23 32 -28 21 -45 -16 -26 -25 -25 -66 10 -29
25 -32 32 -21 45 17 21 28 19 66 -10z m-1310 -30 c7 -17 -22 -68 -48 -84 -15
-9 -23 -9 -34 0 -11 9 -14 7 -14 -16 0 -17 -11 -37 -31 -56 -37 -34 -50 -36
-67 -9 -11 18 -9 21 12 30 29 11 46 38 46 74 0 21 5 26 24 26 13 0 26 -5 28
-11 2 -7 9 -5 17 5 12 14 7 16 -58 16 -67 0 -71 1 -71 23 0 21 2 22 96 19 69
-3 97 -7 100 -17z m880 -43 c-24 -47 -95 -101 -154 -118 -29 -9 -55 -14 -57
-12 -2 1 -6 15 -10 31 -6 24 -5 27 19 27 51 0 114 39 148 91 31 49 32 49 51
31 18 -18 18 -21 3 -50z m580 0 c-24 -47 -95 -101 -154 -118 -29 -9 -55 -14
-57 -12 -2 1 -6 15 -10 31 -6 24 -5 27 19 27 51 0 114 39 148 91 31 49 32 49
51 31 18 -18 18 -21 3 -50z m-1146 -991 c7 -14 7 -22 -1 -27 -13 -8 -41 24
-33 37 9 15 23 10 34 -10z m1464 -4 c9 -15 7 -22 -9 -35 -11 -9 -29 -39 -39
-65 -20 -52 -68 -107 -117 -132 -29 -15 -31 -15 -49 7 l-19 23 44 23 c42 21
95 82 95 109 0 10 -22 13 -80 13 -79 0 -80 0 -80 25 0 25 0 25 94 25 72 0 96
4 106 15 16 20 39 16 54 -8z m-1498 -34 c-3 -3 -1 -14 4 -24 9 -15 2 -20 -45
-38 -31 -12 -65 -21 -75 -21 -16 0 -20 -7 -20 -36 l0 -36 75 4 c71 3 75 2 75
-18 0 -28 -17 -34 -99 -34 -96 0 -99 4 -103 133 l-3 107 28 0 c25 0 27 -3 27
-40 l0 -40 48 18 c34 13 47 23 47 37 0 11 4 23 10 27 10 7 41 -30 31 -39z
m746 20 c3 -24 8 -28 33 -28 25 0 30 4 30 25 0 20 5 25 25 25 20 0 26 -6 28
-27 3 -22 9 -28 28 -28 36 0 33 -38 -3 -42 -24 -3 -29 -8 -34 -43 -7 -55 -22
-78 -63 -100 -35 -19 -36 -19 -50 0 -14 18 -14 21 0 30 53 33 64 47 64 81 0
33 -2 35 -27 32 -24 -2 -29 -8 -31 -36 -3 -28 -7 -33 -25 -30 -17 2 -23 11
-25 36 -3 26 -7 32 -28 32 -17 0 -24 5 -24 20 0 15 7 20 25 20 21 0 25 5 25
30 0 25 4 30 24 30 19 0 25 -6 28 -27z m853 -55 c-7 -78 -28 -150 -49 -167
-10 -8 -17 -6 -30 8 -16 18 -16 21 3 60 15 28 21 59 21 106 l0 65 31 0 30 0
-6 -72z m85 -20 c1 -99 4 -101 47 -32 10 18 12 18 28 2 17 -16 17 -18 -1 -49
-35 -60 -105 -92 -126 -58 -7 10 -8 54 -3 122 7 104 8 107 31 107 24 0 24 -2
24 -92z m-2244 67 c17 -43 -48 -154 -113 -195 -44 -28 -48 -29 -65 -13 -26 23
-23 30 21 53 38 19 81 66 94 103 6 15 -2 17 -78 17 -84 0 -85 0 -85 25 l0 25
110 0 c88 0 112 -3 116 -15z m864 -100 l0 -115 -25 0 c-14 0 -25 5 -25 10 0 6
-35 10 -86 10 -83 0 -85 1 -82 22 3 21 9 23 86 26 l82 3 0 54 0 55 -80 0 c-79
0 -80 0 -80 25 l0 25 105 0 105 0 0 -115z m146 90 c30 -23 32 -28 21 -45 -16
-26 -25 -25 -66 10 -29 25 -32 32 -21 45 17 21 28 19 66 -10z m580 0 c30 -23
32 -28 21 -45 -16 -26 -25 -25 -66 10 -29 25 -32 32 -21 45 17 21 28 19 66
-10z m-1310 -30 c7 -17 -22 -68 -48 -84 -15 -9 -23 -9 -34 0 -11 9 -14 7 -14
-16 0 -17 -11 -37 -31 -56 -37 -34 -50 -36 -67 -9 -11 18 -9 21 12 30 29 11
46 38 46 74 0 21 5 26 24 26 13 0 26 -5 28 -11 2 -7 9 -5 17 5 12 14 7 16 -58
16 -67 0 -71 1 -71 23 0 21 2 22 96 19 69 -3 97 -7 100 -17z m880 -43 c-24
-47 -95 -101 -154 -118 -29 -9 -55 -14 -57 -12 -2 1 -6 15 -10 31 -6 24 -5 27
19 27 51 0 114 39 148 91 31 49 32 49 51 31 18 -18 18 -21 3 -50z m580 0 c-24
-47 -95 -101 -154 -118 -29 -9 -55 -14 -57 -12 -2 1 -6 15 -10 31 -6 24 -5 27
19 27 51 0 114 39 148 91 31 49 32 49 51 31 18 -18 18 -21 3 -50z"/>
<path d="M2270 1345 c0 -8 7 -15 15 -15 8 0 15 7 15 15 0 8 -7 15 -15 15 -8 0
-15 -7 -15 -15z"/>
<path d="M2270 245 c0 -8 7 -15 15 -15 8 0 15 7 15 15 0 8 -7 15 -15 15 -8 0
-15 -7 -15 -15z"/>
<path d="M2270 2565 c0 -8 7 -15 15 -15 8 0 15 7 15 15 0 8 -7 15 -15 15 -8 0
-15 -7 -15 -15z"/>
</g>
</svg>
